<svg width="21" height="19" viewBox="0 0 21 19" fill="none" xmlns="http://www.w3.org/2000/svg">
<g id="Frame 27">
<path id="Vector" d="M20.9609 1.91684C20.9609 1.91684 20.0384 1.63652e-08 18.8965 0C15.9668 -4.19879e-08 8.68964 7.17646 8.68964 9.46588C8.68963 12.3412 16.5376 18.0952 18.8965 18.9318C19.9629 19.3099 21.2406 18.0397 20.9609 17.0149C20.3426 14.7492 13.3033 9.46588 13.3033 9.46588L20.9609 1.91684Z" fill="#16BDD2"/>
<path id="Vector_2" d="M0.0390759 1.91684C0.0390759 1.91684 0.961569 1.63652e-08 2.10347 0C5.03321 -4.19879e-08 12.3104 7.17646 12.3104 9.46588C12.3104 12.3412 4.46245 18.0952 2.10347 18.9318C1.03714 19.3099 -0.240596 18.0397 0.0390759 17.0149C0.657397 14.7492 7.69674 9.46588 7.69674 9.46588L0.0390759 1.91684Z" fill="#16BDD2"/>
</g>
</svg>
