<svg width="4" height="4" viewBox="0 0 4 4" fill="none" xmlns="http://www.w3.org/2000/svg">
<path id="Vector" d="M3.71849 1.04866C3.00298 1.48477 3.38364 2.05574 3.54799 2.54943C3.68081 2.95754 4.01439 3.43383 3.43221 3.57877C3.03066 3.67942 2.77226 3.2188 2.7402 2.71757C2.71159 2.0883 2.43668 1.72081 1.74531 2.08294C1.47124 2.2131 1.52284 2.8296 1.00068 2.58907L1.0036 2.57504C0.963147 2.36667 0.968638 2.15178 1.01967 1.94551C1.0707 1.73923 1.16603 1.54661 1.29895 1.38123C1.43659 1.22264 1.57701 1.06462 1.71685 0.909416C2.08895 0.796769 1.7178 -0.0706996 2.44905 0.184152C2.59384 0.506963 2.92908 0.515392 3.198 0.632901C3.5739 0.529829 3.85506 0.532833 3.71849 1.04866Z" fill="#BCBCBC"/>
</svg>
