<svg width="7" height="11" viewBox="0 0 7 11" fill="none" xmlns="http://www.w3.org/2000/svg">
<path id="Vector" d="M1.9074 6.93599C3.06361 6.74098 2.34172 5.9116 2.18684 5.59546C1.81661 4.68897 1.39354 3.80539 0.919834 2.94934C0.351742 2.02326 0.788951 1.75153 1.37998 1.43871C2.1213 1.04602 2.82605 0.508174 3.73139 0.527167C4.03201 0.478633 4.30908 0.208642 4.6169 0.46009C4.95513 1.15097 5.84235 1.54954 5.72475 2.47607C5.3472 2.80998 5.13362 2.32944 4.8318 2.32798C4.34419 2.32583 3.85661 2.37929 3.58389 2.83747C3.28044 3.35948 3.58279 3.83219 3.94863 4.08402C4.54296 4.48006 4.83187 5.2543 5.64686 5.38615C6.27137 5.48414 6.35582 6.16601 6.44103 6.59346C6.55939 7.11268 5.95229 6.94516 5.62942 7.04465C4.95233 7.25467 5.4216 7.77681 5.54271 7.94837C5.75283 8.20126 5.89322 8.5054 5.94985 8.83043C6.00648 9.15547 5.97737 9.49002 5.86544 9.80069C5.80385 9.99468 5.69821 10.1717 5.55693 10.3176C5.41564 10.4636 5.24261 10.5744 5.05154 10.6414C4.86048 10.7084 4.65666 10.7296 4.45627 10.7035C4.25589 10.6773 4.06448 10.6045 3.89721 10.4907C2.69474 9.62552 1.55523 8.70908 1.9074 6.93599Z" fill="#B01F23"/>
</svg>
