<svg width="10" height="6" viewBox="0 0 10 6" fill="none" xmlns="http://www.w3.org/2000/svg">
<path id="Vector" d="M0.576651 2.44145C0.872674 1.99691 1.6374 2.66257 1.80404 1.91891C1.71564 1.75229 1.69584 1.55721 1.7489 1.37563C1.80196 1.19406 1.92365 1.0405 2.08777 0.947991C2.58245 0.809071 3.10768 0.831473 3.58799 1.01198C3.65759 1.02649 3.72368 1.05782 3.79153 1.08074C4.89832 1.9172 6.46476 1.70529 7.50808 2.76262C7.85332 3.12722 8.22779 2.5293 8.58095 2.35418C8.93411 2.17906 9.24206 2.12327 9.47738 2.42984C9.65816 2.66359 9.42736 2.87885 9.24091 3.00678C8.36975 3.61821 8.59845 4.15165 9.62524 4.71685C8.23398 5.10574 7.12314 5.75208 6.02475 4.73594C5.51038 4.26293 5.07014 4.61888 4.59094 4.72969C2.80174 5.1322 0.892083 4.35663 0.277013 2.97303C0.281105 2.9534 0.295717 2.88329 0.337756 2.86279C0.379455 2.84067 0.424772 2.82632 0.471506 2.82044C0.797518 2.83763 1.12083 2.88836 1.43639 2.97183C1.01919 2.84097 0.709572 2.77935 0.576651 2.44145Z" fill="#45B64A"/>
</svg>
