<svg width="14" height="11" viewBox="0 0 14 11" fill="none" xmlns="http://www.w3.org/2000/svg">
<path id="Vector" d="M5.16847 7.65953C6.23828 6.16479 7.67967 7.1939 9.19642 7.22037C8.52366 6.42055 7.99122 5.511 7.62186 4.53062C7.36771 3.79873 6.75617 3.27621 5.65177 3.36203C4.17611 3.47289 2.78557 2.72945 1.35801 2.35872C1.06362 2.2798 0.665095 2.00358 1.03375 1.48932C1.50255 0.829126 3.38735 0.288523 4.29929 0.610303C4.36668 1.15109 3.61854 1.08878 3.59906 1.66998C3.93775 1.843 4.14783 1.51808 4.40667 1.40523C5.52653 0.92465 6.59298 0.547059 7.50486 1.87255C7.66398 2.13899 7.89926 2.35078 8.18007 2.4803C8.46087 2.60982 8.77417 2.65108 9.07912 2.59869C10.1687 2.43075 9.83791 3.94786 10.7643 4.15853C11.4965 4.31116 12.3807 4.55693 11.943 5.76496C11.7109 6.40428 12.3104 6.78968 12.7125 7.16027C13.0787 7.49412 13.505 7.77613 12.9545 8.28468C12.5195 8.68561 12.0833 9.02193 11.5192 8.43906C11.2789 8.14759 10.9735 7.91751 10.6279 7.7675C10.2608 7.64708 9.82327 7.59977 9.83991 8.31433C9.87336 10.0771 9.83717 10.0695 8.18011 9.3086C8.08878 9.26384 7.98461 9.25297 7.88591 9.27788C7.7872 9.3028 7.70028 9.36191 7.64041 9.44483C7.70365 9.89403 8.37651 10.0109 8.30778 10.5496C6.9286 10.783 6.07125 10.06 5.13019 7.87103C5.03932 7.80526 5.01526 7.75343 5.05583 7.71214C5.09639 7.67084 5.13785 7.65315 5.16847 7.65953Z" fill="#43B64A"/>
</svg>
