<svg width="71" height="62" viewBox="0 0 71 62" fill="none" xmlns="http://www.w3.org/2000/svg">
<path id="Vector" d="M6.24102 7.96457C4.2559 8.02483 2.35855 8.94616 0.314423 8.52299L4.29213 7.55832C4.48544 6.82607 3.74048 7.25019 3.56744 6.96538C3.2827 6.57536 2.43619 6.1209 3.72016 5.92619C3.95984 5.89129 4.32892 5.62585 4.35871 5.42721C4.64667 3.30714 6.21631 3.87429 7.46876 3.94223C8.56562 4.00407 9.59947 4.06156 10.5314 3.04725C9.40186 3.01664 8.32564 3.19028 7.55403 2.25104C9.1752 0.801002 10.9995 2.7527 12.6471 1.92855C12.0638 0.545724 12.2522 0.213354 13.6821 0.517265C14.7818 0.746505 15.7213 0.281003 16.7416 0.236175C19.5604 0.080654 22.379 0.511806 25.0215 1.5027C26.9393 2.23901 28.8964 2.84302 30.6798 3.93171C31.4385 4.33232 32.3043 4.48104 33.1535 4.35665C35.0706 4.14083 37.0102 4.35232 38.8345 4.9761C40.2799 5.47052 41.85 5.75684 42.9456 6.77239C43.713 7.5161 44.7396 7.92753 45.8063 7.91887C46.4019 7.94646 46.1989 8.82299 46.6284 9.2432C47.9148 8.03356 49.3735 8.05963 50.8045 8.9432C51.8226 9.55046 53.14 9.18129 54.114 10.2505C54.4453 10.6122 55.9821 9.88785 56.9527 9.60735C57.1105 9.56123 57.3647 9.23379 57.1943 9.01977C56.3035 7.88595 57.5607 8.15388 57.8903 8.04994C58.6458 7.81237 60.1608 6.91374 59.022 9.03204C58.9987 9.1658 59.0021 9.30281 59.0319 9.4351C59.0617 9.56739 59.1172 9.69234 59.1954 9.80269C60.4996 9.83166 60.1917 10.3469 59.6951 11.1125C59.5337 11.3715 59.9638 11.4962 60.28 11.3866C60.9441 11.1417 61.654 10.997 62.2164 10.529C62.4332 10.3402 62.7043 10.2261 62.9897 10.2035C63.2752 10.1808 63.5601 10.2508 63.8027 10.4031C64.3067 10.675 64.6097 10.9635 63.9125 11.5205C62.8258 12.3855 61.7187 12.819 60.3948 12.2855C59.3015 11.844 58.0555 13.0415 56.9144 11.7561C57.8254 13.295 56.8801 13.3145 55.9964 13.2473C53.6214 13.0595 51.5864 14.2653 49.3945 14.8296C48.7278 15.0038 47.8956 15.6233 48.0268 16.0809C48.2413 16.822 48.2364 17.8628 49.3501 18.2061C50.6586 18.6047 51.4393 19.9321 52.7566 20.3999C53.0975 20.5207 53.0088 20.8621 52.8357 21.1216C52.6625 21.381 52.4351 21.6497 52.2544 21.931C51.8723 22.5654 51.8062 23.3007 52.4159 23.7204C52.5488 23.8025 52.6974 23.8556 52.8521 23.8764C53.0067 23.8973 53.1641 23.8853 53.3141 23.8414C53.4641 23.7975 53.6035 23.7225 53.7232 23.6213C53.8429 23.5201 53.9404 23.3949 54.0093 23.2537C54.6385 21.6291 56.0194 21.3317 57.398 20.8084C58.1628 20.526 59.1442 20.1804 58.888 18.9565C58.8805 18.9091 58.8817 18.8608 58.8916 18.8138C58.9764 18.4072 61.6485 16.2076 62.162 16.1274C63.089 15.987 65.141 17.041 65.5744 17.8746C65.6906 18.0571 65.739 18.2751 65.7111 18.4903C65.6833 18.7056 65.5809 18.9043 65.4221 19.0514C65.0525 19.4309 65.3397 19.7395 65.5006 20.0686C65.7366 20.5392 66.1264 20.439 66.4786 20.3105C67.2736 20.0226 68.0589 19.6976 68.9914 19.3214L68.7835 24.7503C69.3367 24.7866 70.606 24.3693 70.7029 25.563C70.7998 26.7566 69.5128 26.8541 68.6554 27.0236C66.9154 27.3574 65.2102 27.6077 63.4084 26.9834C61.6067 26.3591 59.7895 27.063 58.0967 27.8953C59.4561 28.0353 60.8123 27.1738 62.1546 27.9394C62.1759 28.8685 60.3116 28.7257 61.0355 30.0471C61.5408 30.9396 62.4058 31.0409 63.3376 31.0859C62.0196 32.0432 60.402 31.5948 59.0429 32.1777C58.9628 32.2136 58.7419 32.0886 58.696 31.9883C58.6782 31.9446 58.67 31.8976 58.6719 31.8504C58.6737 31.8032 58.6857 31.7569 58.7069 31.7147C58.7281 31.6724 58.758 31.6353 58.7947 31.6057C58.8314 31.5761 58.874 31.5548 58.9195 31.5433C59.2359 31.419 59.5494 31.3088 59.8468 31.1923C60.1472 30.8101 59.9286 30.7996 59.6046 30.8491C58.027 30.7661 56.2874 30.8746 55.1055 31.7227C52.786 33.3871 49.892 33.3896 47.5648 34.868C47.2308 35.0764 46.8465 35.3036 46.8669 35.6794C46.9581 37.4162 45.7212 37.9982 44.4509 38.2806C43.3142 38.5353 42.3261 39.0668 41.3096 39.525C39.6074 40.2909 39.9132 42.0432 39.6622 43.4979C39.6038 43.7784 39.7486 44.1012 39.6537 44.3331C39.4623 44.8053 39.1931 45.428 38.6732 45.4133C38.1534 45.3986 38.0899 44.7416 38.077 44.2736C38.0607 43.6411 37.7903 43.0433 38.2168 42.3626C38.7013 41.5857 38.0278 40.8308 37.3861 40.7731C36.8879 40.7181 36.4168 40.5182 36.0303 40.1979C35.0477 39.5043 34.1642 39.2412 33.1946 40.2827C32.5966 40.9219 32.0518 40.1908 31.5952 39.9142C29.6616 38.724 26.5614 39.5204 25.4866 41.5409C25.058 42.3752 24.5881 43.1875 24.0787 43.9747C23.3508 45.0696 23.5753 46.2781 23.728 47.4132C23.8589 48.3183 24.3735 49.3474 25.4502 49.4226C26.621 49.5057 27.9716 49.7024 28.7462 48.3831C29.0258 47.9059 29.2934 47.4584 29.9074 47.4956C30.5213 47.5329 31.3672 47.1678 31.7275 47.8926C32.0346 48.5097 31.3462 48.969 31.0253 49.4493C30.5353 50.2003 30.0053 50.9241 29.4375 51.6174C28.7715 52.415 29.1587 52.5923 29.9397 52.7756C30.672 52.9282 31.4418 52.6497 32.1527 53.0993C32.7689 53.4882 33.2449 53.7133 32.6964 54.6027C32.2357 55.3494 32.0244 56.2652 31.7724 57.1257C31.2973 58.7502 32.4397 60.1267 34.0918 59.9356C34.4664 59.8751 34.85 59.9316 35.1911 60.0974L35.1566 60.2629C34.6207 60.4643 33.7789 60.0986 33.6838 61.1264C33.6662 61.3363 33.3557 61.3067 33.1197 61.1288C31.6256 60.0184 30.0166 59.1241 29.6508 56.9351C29.5066 56.0798 29.3692 54.746 27.7605 54.5336C26.7987 54.4092 25.8868 53.5578 25.4176 52.4358C25.0014 51.436 24.3377 50.648 23.0107 51.2025C22.8583 51.274 22.6899 51.3036 22.5226 51.2882C22.3553 51.2729 22.1952 51.2132 22.0586 51.1152C20.5357 49.9198 18.9416 48.815 17.5201 47.5091C16.774 46.8239 16.0654 45.889 16.9311 44.6766C17.3088 44.1466 17.0541 43.4732 16.8538 42.8871C16.2704 41.1707 15.7048 39.4521 15.071 37.7544C14.7907 37.0083 14.8315 36.2413 14.8591 35.5096C14.8875 34.8718 14.8807 34.2353 14.1436 34.2455C13.4065 34.2558 13.3423 34.8979 13.4691 35.5301C13.8282 37.526 14.0451 39.5456 14.118 41.5735C14.1308 41.8045 14.2576 42.0328 13.9827 42.3618C13.5351 41.4433 12.6943 40.7383 13.1946 39.5785C13.2288 39.4978 13.2677 39.3391 13.2345 39.3175C11.8463 38.3259 12.8109 36.8619 12.5439 35.662C12.1712 33.9661 12.8278 32.2096 11.5471 30.4795C10.8411 29.5042 11.1022 27.3873 11.911 25.9464C12.5654 24.7771 13.4451 23.7506 14.4983 22.9274C15.5208 22.1338 16.4897 21.3321 17.1782 20.2173C17.5244 19.6574 17.9067 19.1196 18.3503 20.169C18.4693 20.4484 18.546 20.4146 19.221 19.894C19.6859 19.0574 19.2227 18.2556 19.1512 17.4418C18.5022 16.5135 18.6119 15.0118 19.3953 14.0689C20.4281 12.8211 20.1869 11.372 19.178 10.2194C17.8998 8.75612 16.0803 8.35636 14.5602 7.38401C14.4301 7.28614 14.2782 7.22152 14.1177 7.1957C13.9571 7.16987 13.7926 7.18361 13.6383 7.23572C12.596 7.61873 11.4534 7.61604 10.4152 7.22814C9.38658 6.85278 8.24768 7.63373 7.16832 7.9618C6.86015 8.15801 6.54028 7.82504 6.24102 7.96457Z" fill="#41B64A"/>
</svg>
