<svg width="7" height="4" viewBox="0 0 7 4" fill="none" xmlns="http://www.w3.org/2000/svg">
<path id="Vector" d="M6.05702 3.36865C5.14644 2.5526 3.8952 2.59026 2.86641 2.11829C2.22143 1.82583 1.59916 1.4942 0.878546 1.41129C0.612162 1.37917 0.228422 1.36649 0.271733 0.977537C0.307612 0.666048 0.64777 0.567229 0.928907 0.514632C1.53367 0.400739 2.0203 0.742135 2.5161 0.997653C3.72344 1.64438 4.91891 2.30619 6.12113 2.96355C6.14379 2.99413 6.16014 3.02899 6.16919 3.06607C6.17825 3.10315 6.17983 3.1417 6.17386 3.17945C6.16789 3.2172 6.15447 3.25339 6.1344 3.28588C6.11434 3.31837 6.08803 3.34651 6.05702 3.36865Z" fill="#F16038"/>
</svg>
