<svg width="9" height="5" viewBox="0 0 9 5" fill="none" xmlns="http://www.w3.org/2000/svg">
<path id="Vector" d="M6.17269 0.884388C6.4861 1.1926 6.62571 1.70747 7.28874 1.50916C7.95177 1.31084 8.40403 1.80309 8.47746 2.41244C8.57253 3.21066 8.07248 3.2264 7.48672 2.98432C7.4032 2.96691 7.23315 3.07192 7.14133 3.16398C6.63831 3.6678 6.05555 4.10817 5.4542 3.45316C4.74699 2.66488 6.06459 2.62935 6.08716 2.07512C4.85234 1.56021 3.77665 1.91246 2.97041 3.0905C2.65578 3.55458 2.45067 4.1205 1.84287 4.31862C1.59325 4.4012 1.33668 4.62864 1.09782 4.28329C0.921717 4.02711 0.807141 3.75449 1.06269 3.51805C2.14111 2.52551 2.86673 0.967801 4.67774 1.08779C4.77486 1.0243 4.88271 0.979329 4.9959 0.955127C5.39431 1.00891 5.76759 0.65363 6.17269 0.884388Z" fill="#F8FBF7"/>
</svg>
