<svg width="15" height="8" viewBox="0 0 15 8" fill="none" xmlns="http://www.w3.org/2000/svg">
<path id="Vector" d="M2.93048 6.03148C2.41165 5.44048 1.69047 5.41598 0.989936 5.33434C1.3268 4.81929 1.78 4.86109 2.20695 5.1403C2.8967 5.59427 3.63782 5.3976 4.38992 5.45488C3.79313 3.73271 5.54988 0.991173 7.28248 0.790485C8.05605 0.702999 8.58989 1.4171 8.547 1.76224C8.35771 3.18594 9.08993 3.04594 9.98298 2.8312C10.3374 2.52465 9.9117 2.40665 9.83541 2.21517C9.65441 1.82921 9.75187 1.6125 10.1928 1.53176C11.0455 1.39931 11.8993 1.26126 12.7833 1.11778C11.6287 3.49322 11.6168 3.5083 13.6874 5.14263C14.1475 5.50427 14.5142 5.97212 14.7568 6.50681C13.9488 7.98589 12.4235 7.80547 11.2349 6.94319C9.81317 5.90354 8.52617 5.36019 6.58366 5.63417C5.43622 5.78711 4.21397 6.88428 2.93048 6.03148Z" fill="#B01F23"/>
</svg>
