<svg width="56" height="32" viewBox="0 0 56 32" fill="none" xmlns="http://www.w3.org/2000/svg">
<path id="Vector" d="M45.9076 30.9361C45.081 30.3863 44.2284 29.8633 43.703 28.9695C43.073 28.5631 42.3825 28.2524 41.8404 27.7034L40.7657 27.4793C39.6651 26.7525 38.8363 25.7252 37.9088 24.8091C37.1859 24.0965 38.003 23.4095 38.1058 22.5822C37.4139 22.7658 36.6734 22.4856 36.2237 23.2492C36.2189 23.508 36.1351 23.7592 35.9836 23.9688C35.0052 24.4818 34.5179 24.032 34.176 23.1355C33.7688 22.0791 33.2482 21.9003 32.4041 22.6052C31.4334 23.4154 30.4016 24.2538 30.6689 25.7726C30.8231 26.6358 30.2404 26.6578 29.65 26.7308C28.7563 26.8371 27.9365 26.157 27.0324 26.5363C26.5323 26.6076 25.8708 26.5341 26.2698 27.4074C26.3614 27.6275 26.4108 27.8632 26.4155 28.102C26.4463 28.8459 26.2186 29.5622 25.407 29.5393C24.5954 29.5164 24.2273 28.8574 24.3375 28.0083C24.3708 27.8484 24.7193 27.6958 24.4551 27.5558C23.1211 26.8476 23.2217 25.5429 23.077 24.3276C23.069 24.1336 22.9863 23.9505 22.8464 23.8172C21.5331 22.8704 20.6887 21.3746 18.9634 20.3975C19.5093 21.6607 20.2791 22.8127 21.2353 23.7974C22.2424 24.8472 22.1992 25.64 21.2122 26.6955C21.1258 26.8104 21.0116 26.901 20.8805 26.9588C20.7494 27.0165 20.6059 27.0394 20.4637 27.0252C20.0877 26.9615 20.1066 26.6201 20.122 26.3512C20.1681 25.4331 19.721 24.8044 19.0012 24.3413C18.0041 23.6837 17.2445 22.7199 16.8347 21.5925C16.5071 20.7809 16.0964 20.4378 15.2258 20.8094C14.4253 21.1517 13.5943 21.2916 12.7489 20.9018C12.4839 20.7792 12.0867 20.7198 11.9631 20.9779C11.4655 21.9716 10.4346 22.0113 9.63475 22.462C9.03815 22.762 8.55809 23.2543 8.27126 23.8604C8.08541 24.2505 7.80525 24.5875 7.45655 24.8406C7.10784 25.0936 6.7018 25.2545 6.27574 25.3085C5.30941 25.4845 4.30448 25.2604 3.3256 25.5246C3.06381 25.5958 2.97646 25.2762 2.96211 25.0245C2.66365 24.7282 2.40773 24.2417 2.06308 24.167C0.367552 23.8135 1.13251 22.6942 1.35051 21.8295C1.58767 20.887 2.19603 20.1008 2.2825 19.0448C2.35879 18.1214 3.24935 18.1695 3.9784 18.421C4.7753 18.6954 5.55144 19.0415 6.35697 19.2884C7.1625 19.5353 7.8553 19.6681 8.36346 18.6239C8.88272 17.5265 9.0733 16.6123 8.18241 15.6599C7.87646 15.3298 7.26769 15.3375 7.13281 14.6188C8.45994 14.8697 9.83029 14.7648 11.1065 14.3146C12.4442 13.8144 13.7335 13.1907 14.9577 12.4516C15.5978 12.0846 16.1647 11.7902 16.9152 11.9525C17.9203 12.162 18.1924 11.651 18.0363 10.7552C17.8532 9.76598 18.279 9.22851 19.2448 9.05525C19.6337 9.57235 18.9755 9.91505 19.056 10.3649C19.272 10.5277 19.4365 10.75 19.5297 11.0051C20.3053 12.1763 21.6201 11.9588 22.7335 12.2201C23.1734 12.3118 23.6842 12.1052 24.1313 12.2598C25.4525 12.7225 26.4422 12.5601 26.8019 10.9876C26.8399 10.8053 27.016 10.5318 27.1418 10.5697C28.4836 10.9753 28.4741 9.51597 29.1946 9.08382C30.0179 8.86917 30.7121 9.55233 31.8572 9.4106C30.667 8.90497 29.6422 9.18006 28.7398 8.85441C26.9934 7.68564 26.9093 6.97456 28.3444 5.55304C28.5912 5.33131 28.8134 5.08326 29.007 4.81327C29.1106 4.65052 29.2066 4.46862 29.0694 4.29077C29.0406 4.2529 29.0043 4.22142 28.9629 4.19826C28.9214 4.1751 28.8756 4.16076 28.8284 4.15613C28.7812 4.15149 28.7335 4.15666 28.6883 4.17132C28.6431 4.18598 28.6013 4.2098 28.5655 4.24133C27.6713 5.04695 26.5517 5.44272 25.522 6.00647C24.9449 6.3222 25.0477 6.88793 25.3976 7.3559C25.9894 8.126 25.7443 8.6748 24.9656 9.06555C24.3462 9.37537 23.9795 9.92223 23.5368 10.4152C22.5922 11.4766 21.7856 11.5133 20.8154 10.6351C20.806 10.5688 20.7965 10.5024 20.7843 10.4355C21.1329 9.51613 20.5829 8.79575 20.2717 8.01687C19.9975 7.33933 19.5726 7.73358 19.2364 7.88298C18.1511 8.36492 17.3575 8.0327 16.9401 6.98294C16.4704 5.80813 17.027 4.71267 18.1957 4.31835C18.9888 4.05351 19.83 4.07376 20.6472 3.79054C22.171 3.25369 23.125 1.96599 24.4796 1.20952C26.5225 0.063932 28.6004 -0.135 30.7811 0.246405C32.4911 0.544332 33.9031 1.38003 35.3834 2.36166C36.4302 3.05392 37.9647 3.4411 39.237 4.06917C39.6712 4.28552 40.3976 4.5218 40.0954 5.14941C39.8877 5.57433 39.2043 5.45235 38.6849 5.39382C37.8082 5.29302 37.1515 4.7084 36.362 4.41216C35.925 4.25083 35.5257 4.00663 34.841 4.25311C35.9816 4.8713 35.8186 6.23901 36.8051 6.9275C37.4176 7.34781 37.9125 7.57973 38.5693 7.16064C38.5442 6.86278 38.6552 6.74838 38.9491 6.88572C39.9681 6.56847 40.7932 5.68993 42.0163 5.9127C42.3838 5.9893 42.178 5.51331 42.1921 5.26458C42.2046 5.06527 41.7966 4.66711 42.354 4.66917C42.6274 4.66763 43.0476 4.60305 43.0959 5.09596C43.2187 6.31843 44.0292 6.03966 44.7202 5.77694C45.9823 5.29675 47.0945 5.21547 48.4661 5.78522C49.3964 6.17228 50.7389 6.50481 51.8937 5.87057C51.9605 5.35484 52.2083 5.35088 52.5572 5.62844L55.9696 7.37568C55.8848 8.36759 55.067 8.47219 54.368 8.70396C53.8306 8.88459 53.2792 9.02131 52.7354 9.17718C52.098 9.55933 52.9652 10.3049 52.3689 10.6985C52.4652 10.9615 52.5497 11.2249 52.6515 11.489C53.2448 12.1131 53.0076 12.8889 53.0302 13.6164C52.9906 14.3221 52.6039 15.0346 53.0625 15.733C53.6806 16.7397 53.3364 17.2064 52.2213 17.2461C51.4923 17.6355 52.2137 18.0493 52.1998 18.4502C52.2187 18.5936 52.277 18.7287 52.3682 18.8403C52.4595 18.9519 52.5799 19.0354 52.716 19.0816C53.009 18.7213 53.4202 18.491 53.7435 18.1662C54.6261 18.9355 54.3321 19.9833 54.2363 20.9027C54.1445 21.7614 53.3773 21.7624 52.6896 21.6893C52.4202 21.323 51.904 21.2768 51.6401 20.9262L51.0967 20.7457C50.906 20.0299 50.3137 20.4186 49.9036 20.3097C49.1044 20.6874 48.4694 20.2214 47.7977 19.9175C47.6586 20.039 47.5542 20.1957 47.4956 20.3714C47.4371 20.5471 47.4263 20.7352 47.4647 20.9162C47.5406 21.3216 47.724 21.6986 47.9955 22.0072C47.9627 22.1642 47.93 22.3213 47.8973 22.4783C47.896 23.195 48.5352 23.9193 47.8646 24.6282C44.7034 25.8567 44.7028 25.8595 46.2826 28.8722C46.5827 29.3542 46.7154 29.9232 46.66 30.4902C46.5926 30.9531 46.4133 31.2698 45.9076 30.9361Z" fill="#C02226"/>
</svg>
