<svg width="5" height="8" viewBox="0 0 5 8" fill="none" xmlns="http://www.w3.org/2000/svg">
<path id="Vector" d="M1.42609 6.59424C1.77696 6.54155 2.24176 6.36044 1.68499 6.06295C0.108636 5.26322 1.68552 4.83401 1.93831 4.6526C2.85429 4.02125 2.87921 3.74844 2.02505 2.9822C1.41819 2.43724 1.49047 1.70024 1.93655 1.02361C2.45011 0.232287 2.83341 0.818439 3.25056 1.13072C3.35753 1.19891 3.4692 1.25934 3.58472 1.31157C2.25117 2.78938 4.81443 3.53732 4.24035 4.88373C4.19645 4.98285 4.29573 5.16157 4.3632 5.2839C5.06039 6.53831 4.76476 6.88344 3.08751 7.01373C2.62088 7.00557 2.15534 6.96718 1.69378 6.89878C1.3529 7.01501 1.35237 6.83639 1.42609 6.59424Z" fill="#C12527"/>
</svg>
