<svg width="34" height="18" viewBox="0 0 34 18" fill="none" xmlns="http://www.w3.org/2000/svg">
<path id="Vector" d="M0.949284 6.05703C0.992551 6.14213 1.07585 6.29996 1.07922 6.29773C2.18191 5.74626 3.38602 6.38061 4.48821 5.99877C5.05527 5.80093 5.74509 5.54382 5.90666 4.92201C6.1991 3.79781 7.02861 3.40009 7.9318 2.94165C8.49354 2.65784 9.41154 2.81116 9.48246 1.69053C9.50408 1.29413 10.3232 1.28054 10.7395 1.51361C11.6751 2.04225 12.5705 1.87189 13.4191 1.41083C14.2676 0.949774 14.7404 1.21806 14.9961 2.08194C15.3371 3.35904 16.1622 4.44923 17.2943 5.11861C18.309 5.72809 18.8327 6.6859 18.2519 8.09236C18.7886 7.74773 19.3706 7.67299 19.1717 6.94092C19.1252 6.80705 19.119 6.66224 19.1539 6.5246C19.497 5.64508 19.5127 5.63956 18.7282 4.88783C17.859 4.05409 17.4515 2.90105 16.7229 1.96491C16.6548 1.89591 16.6038 1.81171 16.574 1.71912C16.5443 1.62654 16.5366 1.52814 16.5516 1.43187C16.5666 1.33561 16.6038 1.24417 16.6603 1.16493C16.7168 1.08569 16.7909 1.02087 16.8768 0.975707C17.261 0.763163 17.3835 1.08133 17.6584 1.2674C18.7944 2.08945 19.3898 3.48359 20.6983 4.1192C21.4285 4.47627 21.6219 5.26279 21.5414 5.92783C21.3438 7.461 22.0046 8.26302 23.3591 8.56586C23.5766 9.40421 22.3981 8.53526 22.5647 9.32497C22.67 9.80928 22.8545 10.4154 23.3069 10.419C23.7594 10.4226 24.0965 9.87838 24.0984 9.32571C24.1238 9.04365 24.0835 8.75972 23.9808 8.49645C23.2882 7.164 24.084 7.20698 25.0005 7.3395C25.8059 7.12698 26.5088 7.19741 26.941 8.03664C26.754 8.93407 27.1094 9.80705 27.3352 10.5915C27.5954 11.5032 28.4493 11.769 29.6074 11.8436C30.8653 11.9273 32.0215 13.0286 33.5139 12.5028C33.8274 12.3926 34.1009 13.0319 33.91 13.3901C33.4704 14.2027 33.3341 15.1078 33.0103 15.9504C32.5583 17.1291 31.7747 17.8641 30.4164 17.7185C30.2735 17.469 30.0633 17.2655 29.81 17.1314C29.5568 16.9973 29.2709 16.9382 28.9852 16.9608C26.9422 17.006 25.2988 16.0402 23.685 14.9605C23.1749 14.62 22.7609 14.1533 22.1223 14.0114C21.3845 13.8576 20.8566 13.8676 20.6425 14.7974C20.4283 15.7272 20.0212 16.0081 18.9513 15.51C17.0971 14.6495 16.2859 12.5344 14.225 11.9409C13.6358 11.7712 13.3586 10.9409 13.6939 10.0012C14.3262 8.22217 13.9496 7.86859 12.091 8.06057C11.1899 8.14479 10.2835 7.98614 9.46475 7.60091C8.98096 7.35822 8.45334 7.21607 7.91327 7.18293C7.37321 7.14978 6.83172 7.2263 6.321 7.40795C4.309 8.18248 2.52892 8.09527 0.797313 6.84179C0.841713 6.57304 0.895501 6.31504 0.949284 6.05703Z" fill="#B01F23"/>
</svg>
