<svg width="16" height="4" viewBox="0 0 16 4" fill="none" xmlns="http://www.w3.org/2000/svg">
<path id="Vector" d="M0.768349 2.73853C0.989398 2.37493 1.55275 2.9196 1.71466 2.37979C1.70499 2.10563 1.79767 1.98156 2.07233 2.14124C2.35074 2.19927 2.86898 2.50044 2.80733 2.00182C2.60313 0.417086 3.61002 1.31466 3.99103 1.43797C5.07837 1.79632 6.13848 2.20166 7.29984 1.75899C6.38355 1.54165 5.41202 1.56153 4.65681 0.892001C4.56769 0.817824 4.54319 0.75419 4.58609 0.70168C4.62899 0.64917 4.66663 0.621901 4.69726 0.628285C6.11617 0.441219 7.48179 0.8722 8.86864 1.0062C11.0208 1.21779 13.1534 1.60673 15.3002 2.02498C13.6251 2.52149 11.9513 3.16461 10.179 2.90053C8.29367 2.62165 6.51275 3.15171 4.77075 3.57869C3.40226 3.95626 1.9425 3.77298 0.71109 3.06898C0.684087 3.03872 0.666473 3.00116 0.660413 2.96091C0.654353 2.92066 0.660112 2.87946 0.67698 2.84239C0.713422 2.76513 0.743292 2.73331 0.768349 2.73853Z" fill="#47B64A"/>
</svg>
