<svg width="10" height="5" viewBox="0 0 10 5" fill="none" xmlns="http://www.w3.org/2000/svg">
<path id="Vector" d="M1.6934 4.12645C1.32033 4.04868 0.846488 4.00843 0.805522 3.56387C0.764557 3.11931 1.30107 3.08191 1.61951 2.92004C3.08897 2.16995 4.7828 2.35038 6.28796 1.77746C7.16879 1.44019 8.00444 0.985226 8.88145 0.638379C9.13795 0.536752 9.50369 0.329135 9.72136 0.790045C9.77639 0.869735 9.81096 0.961933 9.82202 1.05844C9.83307 1.15495 9.82027 1.25279 9.78474 1.34326C9.74921 1.43372 9.69205 1.51401 9.61835 1.577C9.54465 1.63998 9.45669 1.68371 9.36229 1.70429C7.17962 2.53103 4.98888 3.32683 2.80577 4.14177C2.44191 4.25193 2.05347 4.24658 1.6934 4.12645Z" fill="#BCBCBC"/>
</svg>
