<svg width="11" height="10" viewBox="0 0 11 10" fill="none" xmlns="http://www.w3.org/2000/svg">
<path id="Vector" d="M0.20487 7.97541C0.887344 8.25521 1.67195 8.82552 1.77231 7.42425C2.9049 8.30413 3.67038 8.18569 4.54211 6.98619C4.70887 6.75758 4.80656 6.40045 5.02174 6.30192C6.20355 5.76109 6.90466 5.25467 5.74427 3.89494C5.26149 3.32609 6.02989 2.60837 6.62613 2.45174C7.57543 2.18758 8.44807 1.69691 9.16993 1.02137C9.56989 0.6775 10.0976 0.389532 10.5486 0.901996C10.9995 1.41446 10.4868 1.82553 10.1863 2.2077C10.05 2.33662 9.90309 2.45382 9.74728 2.55805C8.13975 4.0402 8.14198 4.09919 9.69145 5.61319C9.8107 5.86337 10.4487 5.77104 10.1481 6.29363C9.63891 6.56206 9.65404 6.9076 9.99109 7.31145C10.1886 7.54868 10.2877 7.79761 9.98253 8.0354C9.93097 8.08261 9.87065 8.11909 9.80506 8.14272C9.73948 8.16635 9.66992 8.17667 9.60042 8.17307C9.53093 8.16947 9.46288 8.15202 9.4002 8.12175C9.33752 8.09147 9.28146 8.04896 9.23528 7.99668C8.38218 7.29504 8.01815 7.67566 7.85015 8.62096C7.63862 9.80298 6.76135 10.2346 5.62793 9.73501C5.3168 9.597 4.99114 9.40328 4.69804 9.54117C3.26869 10.2382 2.09393 8.86373 0.692472 9.09248C0.259267 9.17775 0.0788458 8.49636 0.20487 7.97541Z" fill="#B01F23"/>
</svg>
